# xmcd CD database file
#
# Track frame offsets:
#	150
#	15407
#	32605
#	54875
#	66990
#	85125
#	97710
#	112565
#	129365
#	143075
#	161470
#
# Disc length: 2278 seconds
#
# Revision: 0
# Processed by: cddbd v1.4PL0 Copyright (c) Steve Scherf et al.
# Submitted via: CDex 1.50beta8
#
DISCID=7208e40b
DTITLE=Conley Graves - Genius At Work
DYEAR=1956
DGENRE=Jazz
TTITLE0=The Man I Love
TTITLE1=Laura
TTITLE2=Slaughter On Tenth Avenue
TTITLE3=Prelude II-Fugue
TTITLE4=Stella By Starlight
TTITLE5=Love For Sale
TTITLE6=Flamingo
TTITLE7=Malaguena
TTITLE8=Humoresque
TTITLE9=St.Louis Blues
TTITLE10=Walk It Off
EXTD=YEAR: 1956
EXTT0=
EXTT1=
EXTT2=
EXTT3=
EXTT4=
EXTT5=
EXTT6=
EXTT7=
EXTT8=
EXTT9=
EXTT10=
PLAYORDER=
